<svg width="24" height="25" viewBox="0 0 24 25" fill="none" xmlns="http://www.w3.org/2000/svg">
<path d="M9 12.3252H15M12 9.3252V15.3252M3 5.3252C3 4.79476 3.21071 4.28605 3.58579 3.91098C3.96086 3.53591 4.46957 3.3252 5 3.3252H19C19.5304 3.3252 20.0391 3.53591 20.4142 3.91098C20.7893 4.28605 21 4.79476 21 5.3252V19.3252C21 19.8556 20.7893 20.3643 20.4142 20.7394C20.0391 21.1145 19.5304 21.3252 19 21.3252H5C4.46957 21.3252 3.96086 21.1145 3.58579 20.7394C3.21071 20.3643 3 19.8556 3 19.3252V5.3252Z" stroke="white" stroke-width="2" stroke-linecap="round" stroke-linejoin="round"/>
</svg>
